<svg version="1.1" xmlns="http://www.w3.org/2000/svg" viewBox="-238.5919982910156 -2953.216223144531 8468.48056640625 3277.8242431640624"><desc>Created with Snap</desc><defs></defs><g><g><g transform="matrix(1.024,0,0,-1.024,0,0)"><path d="M67 0L321 687Q245 662 203 604Q162 547 162 462Q162 424 169 410Q176 396 176 393Q69 393 69 484Q69 546 116 608Q164 671 238 710Q313 750 387 750Q424 750 463 736L440 209L660 736L804 736L699 0L555 0L619 449L431 0L294 0L314 451L147 0L67 0ZM933 -4Q859 -4 816 34Q773 72 773 154Q773 222 801 305Q829 388 891 448Q953 509 1047 509Q1175 509 1175 349L1175 348Q1178 347 1186 347Q1219 347 1262 364Q1305 382 1340 407L1349 380Q1320 349 1273 327Q1227 306 1172 297Q1164 206 1131 138Q1098 70 1046 33Q994 -4 933 -4ZM973 86Q997 86 1021 113Q1045 141 1063 188Q1081 236 1089 294Q1062 300 1062 336Q1062 377 1093 390Q1091 423 1083 435Q1075 448 1055 448Q1022 448 991 400Q960 352 941 285Q922 218 922 167Q922 119 933 102Q944 86 973 86ZM1587 -6Q1526 -6 1497 26Q1469 59 1469 107Q1469 128 1474 154Q1479 181 1484 206Q1490 231 1492 238Q1500 273 1507 307Q1514 341 1514 362Q1514 413 1478 413Q1452 413 1432 387Q1412 362 1400 321L1332 0L1188 0L1333 680L1481 700L1427 448Q1477 504 1544 504Q1595 504 1625 476Q1655 448 1655 391Q1655 362 1648 326Q1641 291 1628 240Q1620 209 1613 179Q1607 150 1607 133Q1607 113 1616 102Q1625 91 1647 91Q1677 91 1695 112Q1713 134 1731 179L1773 179Q1736 69 1687 31Q1639 -6 1587 -6ZM1851 -6Q1794 -6 1756 33Q1718 72 1718 155Q1718 229 1747 310Q1777 392 1835 448Q1894 505 1975 505Q2016 505 2036 491Q2056 477 2056 454L2056 447L2067 500L2211 500L2139 160Q2135 145 2135 128Q2135 85 2176 85Q2204 85 2224 111Q2245 137 2257 179L2299 179Q2262 71 2207 32Q2153 -6 2098 -6Q2056 -6 2030 17Q2005 41 2000 86Q1971 45 1935 19Q1900 -6 1851 -6ZM1916 91Q1941 91 1965 114Q1990 138 1999 179L2047 405Q2047 418 2037 430Q2027 443 2006 443Q1966 443 1934 396Q1902 350 1884 284Q1866 219 1866 169Q1866 119 1880 105Q1895 91 1916 91ZM2865 -6Q2804 -6 2775 26Q2747 59 2747 107Q2747 128 2752 154Q2757 181 2762 206Q2768 231 2770 238Q2778 273 2785 307Q2792 341 2792 362Q2792 413 2756 413Q2730 413 2710 387Q2690 362 2678 321L2610 0L2466 0L2539 345Q2542 357 2542 370Q2542 414 2512 414Q2484 414 2463 388Q2443 363 2431 321L2363 0L2219 0L2325 500L2469 500L2458 448Q2509 505 2580 505Q2668 505 2683 419Q2738 504 2822 504Q2873 504 2903 476Q2933 448 2933 391Q2933 362 2926 326Q2919 291 2906 240Q2898 209 2891 179Q2885 150 2885 133Q2885 113 2894 102Q2903 91 2925 91Q2955 91 2973 112Q2991 134 3009 179L3051 179Q3014 69 2965 31Q2917 -6 2865 -6ZM3617 -6Q3556 -6 3527 26Q3499 59 3499 107Q3499 128 3504 154Q3509 181 3514 206Q3520 231 3522 238Q3530 273 3537 307Q3544 341 3544 362Q3544 413 3508 413Q3482 413 3462 387Q3442 362 3430 321L3362 0L3218 0L3291 345Q3294 357 3294 370Q3294 414 3264 414Q3236 414 3215 388Q3195 363 3183 321L3115 0L2971 0L3077 500L3221 500L3210 448Q3261 505 3332 505Q3420 505 3435 419Q3490 504 3574 504Q3625 504 3655 476Q3685 448 3685 391Q3685 362 3678 326Q3671 291 3658 240Q3650 209 3643 179Q3637 150 3637 133Q3637 113 3646 102Q3655 91 3677 91Q3707 91 3725 112Q3743 134 3761 179L3803 179Q3766 69 3717 31Q3669 -6 3617 -6ZM3904 -6Q3830 -6 3789 32Q3748 71 3748 153Q3748 222 3775 305Q3802 388 3863 448Q3924 509 4018 509Q4128 509 4128 413Q4128 357 4096 310Q4064 263 4011 234Q3958 206 3898 202Q3896 172 3896 162Q3896 113 3913 95Q3930 78 3968 78Q4022 78 4060 103Q4099 128 4145 179L4179 179Q4068 -6 3904 -6ZM3906 250Q3943 252 3976 276Q4010 300 4030 337Q4051 374 4051 415Q4051 456 4026 456Q3990 456 3955 393Q3921 330 3906 250ZM4265 -6Q4208 -6 4170 33Q4132 72 4132 155Q4132 229 4161 310Q4191 392 4249 448Q4308 505 4389 505Q4430 505 4450 491Q4470 477 4470 454L4470 450L4519 680L4667 700L4552 160Q4548 145 4548 128Q4548 108 4557 99Q4567 91 4589 91Q4617 91 4637 115Q4658 139 4670 179L4712 179Q4651 0 4511 0Q4470 0 4444 22Q4419 44 4413 86Q4387 46 4350 20Q4314 -6 4265 -6ZM4330 91Q4354 91 4378 113Q4403 135 4412 174L4412 179L4461 408Q4452 443 4420 443Q4380 443 4348 396Q4316 350 4298 284Q4280 219 4280 169Q4280 119 4294 105Q4309 91 4330 91ZM5323 -17Q5245 -17 5245 50Q5245 72 5251 100Q5258 129 5270 174Q5284 221 5291 254Q5298 287 5298 313Q5298 381 5238 381Q5221 381 5205 377L5125 0L4981 0L5126 680Q5059 652 5022 596Q4986 540 4986 461Q4986 424 4993 409Q5000 395 5000 393Q4946 393 4919 415Q4893 438 4893 490Q4893 554 4945 614Q4998 675 5080 712Q5162 750 5244 750Q5258 750 5284 748L5219 442L5322 580Q5445 746 5446 745L5551 745L5273 425L5308 426Q5376 426 5404 397Q5432 369 5432 319Q5432 290 5425 257Q5418 225 5405 177Q5397 146 5390 116Q5383 86 5383 66Q5383 43 5393 25Q5404 7 5422 0Q5361 -17 5323 -17ZM5849 -6Q5788 -6 5759 26Q5731 59 5731 107Q5731 128 5736 154Q5741 181 5746 206Q5752 231 5754 238Q5762 273 5769 307Q5776 341 5776 362Q5776 413 5740 413Q5714 413 5694 387Q5674 362 5662 321L5594 0L5450 0L5595 680L5743 700L5689 448Q5739 504 5806 504Q5857 504 5887 476Q5917 448 5917 391Q5917 362 5910 326Q5903 291 5890 240Q5882 209 5875 179Q5869 150 5869 133Q5869 113 5878 102Q5887 91 5909 91Q5939 91 5957 112Q5975 134 5993 179L6035 179Q5998 69 5949 31Q5901 -6 5849 -6ZM6113 -6Q6056 -6 6018 33Q5980 72 5980 155Q5980 229 6009 310Q6039 392 6097 448Q6156 505 6237 505Q6278 505 6298 491Q6318 477 6318 454L6318 447L6329 500L6473 500L6401 160Q6397 145 6397 128Q6397 85 6438 85Q6466 85 6486 111Q6507 137 6519 179L6561 179Q6524 71 6469 32Q6415 -6 6360 -6Q6318 -6 6292 17Q6267 41 6262 86Q6233 45 6197 19Q6162 -6 6113 -6ZM6178 91Q6203 91 6227 114Q6252 138 6261 179L6309 405Q6309 418 6299 430Q6289 443 6268 443Q6228 443 6196 396Q6164 350 6146 284Q6128 219 6128 169Q6128 119 6142 105Q6157 91 6178 91ZM6618 -6Q6570 -6 6540 24Q6511 54 6511 114Q6511 139 6519 179L6626 680L6774 700L6659 160Q6655 145 6655 128Q6655 108 6664 99Q6674 91 6696 91Q6725 91 6750 115Q6775 140 6786 179L6828 179Q6791 71 6733 32Q6675 -6 6618 -6ZM6929 -6Q6855 -6 6814 32Q6773 71 6773 153Q6773 222 6800 305Q6827 388 6888 448Q6949 509 7043 509Q7153 509 7153 413Q7153 357 7121 310Q7089 263 7036 234Q6983 206 6923 202Q6921 172 6921 162Q6921 113 6938 95Q6955 78 6993 78Q7047 78 7085 103Q7124 128 7170 179L7204 179Q7093 -6 6929 -6ZM6931 250Q6968 252 7001 276Q7035 300 7055 337Q7076 374 7076 415Q7076 456 7051 456Q7015 456 6980 393Q6946 330 6931 250ZM7290 -6Q7233 -6 7195 33Q7157 72 7157 155Q7157 229 7186 310Q7216 392 7274 448Q7333 505 7414 505Q7455 505 7475 491Q7495 477 7495 454L7495 450L7544 680L7692 700L7577 160Q7573 145 7573 128Q7573 108 7582 99Q7592 91 7614 91Q7642 91 7662 115Q7683 139 7695 179L7737 179Q7676 0 7536 0Q7495 0 7469 22Q7444 44 7438 86Q7412 46 7375 20Q7339 -6 7290 -6ZM7355 91Q7379 91 7403 113Q7428 135 7437 174L7437 179L7486 408Q7477 443 7445 443Q7405 443 7373 396Q7341 350 7323 284Q7305 219 7305 169Q7305 119 7319 105Q7334 91 7355 91Z" style="" fill="#143d59"></path></g></g><g transform="matrix(2,0,0,2,2441.2162,-1110.0161)"><g transform="matrix(1.024,0,0,-1.024,0,0)"><path d="M67 0L321 687Q245 662 203 604Q162 547 162 462Q162 424 169 410Q176 396 176 393Q69 393 69 484Q69 546 116 608Q164 671 238 710Q313 750 387 750Q424 750 463 736L440 209L660 736L804 736L699 0L555 0L619 449L431 0L294 0L314 451L147 0L67 0ZM1223 -17Q1145 -17 1145 50Q1145 72 1151 100Q1158 129 1170 174Q1184 221 1191 254Q1198 287 1198 313Q1198 381 1138 381Q1121 381 1105 377L1025 0L881 0L1026 680Q959 652 922 596Q886 540 886 461Q886 424 893 409Q900 395 900 393Q846 393 819 415Q793 438 793 490Q793 554 845 614Q898 675 980 712Q1062 750 1144 750Q1158 750 1184 748L1119 442L1222 580Q1345 746 1346 745L1451 745L1173 425L1208 426Q1276 426 1304 397Q1332 369 1332 319Q1332 290 1325 257Q1318 225 1305 177Q1297 146 1290 116Q1283 86 1283 66Q1283 43 1293 25Q1304 7 1322 0Q1261 -17 1223 -17Z" style="" fill="#143d59"></path></g></g></g></svg>